<!-- カスタムInstagram風ロゴ -->
<svg width="60px" height="60px" viewBox="0 0 60 60" xmlns="http://www.w3.org/2000/svg">
  <g fill="none" fill-rule="evenodd">
    <path fill="#E1306C" d="M30,0 C13.4314575,0 0,13.4314575 0,30 C0,46.5685425 13.4314575,60 30,60 C46.5685425,60 60,46.5685425 60,30 C60,13.4314575 46.5685425,0 30,0 Z M45,30 C45,37.732 38.732,44 31,44 C23.268,44 17,37.732 17,30 C17,22.268 23.268,16 31,16 C38.732,16 45,22.268 45,30 Z"></path>
    <circle fill="#FFF" cx="30" cy="30" r="11"></circle>
    <circle fill="#E1306C" cx="44" cy="16" r="4"></circle>
  </g>
</svg>
